<svg width="2030" height="1201" viewBox="0 0 2030 1201" fill="none" xmlns="http://www.w3.org/2000/svg">
<circle cx="977" cy="553" r="499" fill="white"/>
<rect x="684.406" y="269.133" width="77" height="430" transform="rotate(-13.6338 684.406 269.133)" fill="#D6A3DC" fill-opacity="0.976471"/>
<rect x="793" y="626" width="94" height="61" fill="#D6A3DC" fill-opacity="0.976471"/>
<rect x="953.306" y="155" width="76" height="520.938" transform="rotate(15.5104 953.306 155)" fill="#D6A3DC" fill-opacity="0.976471"/>
<path d="M1094.87 614.609C1094.87 619.818 1097.39 623.968 1102.44 627.061C1107.65 630.153 1114.4 632.92 1122.7 635.361C1131.16 637.64 1140.77 639.919 1151.51 642.197C1162.25 644.476 1173.16 647.406 1184.22 650.986C1195.46 654.404 1206.44 658.88 1217.18 664.414C1227.93 669.785 1237.45 676.865 1245.75 685.654C1254.21 694.281 1260.97 704.941 1266.01 717.637C1271.22 730.332 1273.82 745.632 1273.82 763.535C1273.82 776.393 1273.5 788.682 1272.85 800.4C1272.2 812.119 1270.41 823.024 1267.48 833.115C1264.55 843.044 1259.99 852.077 1253.8 860.215C1247.62 868.353 1238.91 875.352 1227.68 881.211C1216.61 886.908 1202.62 891.302 1185.69 894.395C1168.76 897.487 1148.09 899.033 1123.68 899.033C1102.03 899.033 1083.07 897.894 1066.79 895.615C1050.68 893.499 1036.85 890.163 1025.29 885.605C1013.73 881.048 1004.21 875.27 996.725 868.271C989.4 861.11 983.541 852.728 979.146 843.125C974.915 833.522 971.985 822.536 970.357 810.166C968.73 797.796 967.916 784.043 967.916 768.906H1094.87V832.139H1152.49V759.873C1152.49 755.153 1149.88 751.247 1144.67 748.154C1139.63 745.062 1132.87 742.295 1124.41 739.854C1116.11 737.249 1106.59 734.727 1095.85 732.285C1085.1 729.844 1074.12 726.914 1062.89 723.496C1051.82 720.078 1040.91 715.928 1030.17 711.045C1019.43 706.162 1009.83 700.14 1001.36 692.979C993.062 685.654 986.308 676.947 981.1 666.855C976.054 656.602 973.531 644.395 973.531 630.234C973.531 612.656 974.426 597.031 976.217 583.359C978.007 569.525 981.1 557.48 985.494 547.227C989.889 536.973 995.829 528.346 1003.32 521.348C1010.8 514.186 1020.16 508.408 1031.39 504.014C1042.79 499.619 1056.21 496.445 1071.68 494.492C1087.3 492.539 1105.45 491.562 1126.12 491.562C1155.74 491.562 1180.07 493.516 1199.12 497.422C1218.32 501.328 1233.46 507.839 1244.53 516.953C1255.6 526.068 1263.24 538.031 1267.48 552.842C1271.71 567.653 1273.82 585.801 1273.82 607.285H1152.49V558.457H1094.87V614.609Z" fill="#75CCE8"/>
<path d="M740.827 1152.56L990.824 505.526L1045.95 529.623L740.827 1152.56Z" fill="#D9D9D9"/>
<path d="M874 496C874 490.477 878.477 486 884 486H1041C1043.76 486 1046 488.239 1046 491V525C1046 527.761 1043.76 530 1041 530H884C878.477 530 874 525.523 874 520V496Z" fill="#D9D9D9"/>
<path d="M930.838 319.786L994 341L933.162 522.14L884.219 505.702C876.366 503.065 872.138 494.56 874.776 486.707L930.838 319.786Z" fill="#D9D9D9"/>
<g filter="url(#filter0_d_16_70)">
<rect x="1186" y="135" width="382" height="157" fill="#FD2F92"/>
</g>
<path d="M1315.9 197.4C1314.57 197.4 1313.3 198.733 1312.1 201.4C1310.9 204 1309.8 207.533 1308.8 212C1307.87 216.467 1307.07 221.633 1306.4 227.5C1305.73 233.367 1305.3 239.533 1305.1 246H1297L1298 171H1303.1L1303.5 223.1C1303.97 218.767 1304.57 214.767 1305.3 211.1C1306.03 207.433 1306.9 204.3 1307.9 201.7C1308.97 199.033 1310.17 196.967 1311.5 195.5C1312.83 193.967 1314.37 193.2 1316.1 193.2C1318.37 193.2 1320.43 194.467 1322.3 197C1324.17 199.467 1325.77 202.833 1327.1 207.1C1328.5 211.367 1329.57 216.367 1330.3 222.1C1331.1 227.833 1331.5 233.933 1331.5 240.4C1331.5 241.333 1331.5 242.267 1331.5 243.2C1331.5 244.133 1331.47 245.067 1331.4 246H1323.3C1323.37 244.467 1323.4 243 1323.4 241.6C1323.4 240.133 1323.4 238.667 1323.4 237.2C1323.4 231.733 1323.2 226.6 1322.8 221.8C1322.47 216.933 1321.97 212.7 1321.3 209.1C1320.7 205.5 1319.93 202.667 1319 200.6C1318.07 198.467 1317.03 197.4 1315.9 197.4ZM1377.09 207.4C1377.09 209.4 1376.72 211.367 1375.99 213.3C1375.32 215.167 1374.25 216.867 1372.79 218.4C1371.39 219.933 1369.59 221.167 1367.39 222.1C1365.19 223.033 1362.59 223.5 1359.59 223.5C1358.39 223.5 1357.12 223.433 1355.79 223.3C1354.45 223.1 1353.09 222.833 1351.69 222.5C1352.02 225.367 1352.45 228.067 1352.99 230.6C1353.59 233.133 1354.25 235.333 1354.99 237.2C1355.72 239.067 1356.52 240.567 1357.39 241.7C1358.25 242.767 1359.15 243.3 1360.09 243.3C1361.29 243.3 1362.39 242.167 1363.39 239.9C1364.45 237.567 1365.39 234.433 1366.19 230.5L1373.29 231.8C1371.75 236.6 1369.75 240.433 1367.29 243.3C1364.89 246.1 1362.49 247.5 1360.09 247.5C1357.69 247.5 1355.42 246.433 1353.29 244.3C1351.22 242.1 1349.39 239.267 1347.79 235.8C1346.25 232.267 1345.05 228.3 1344.19 223.9C1343.32 219.433 1342.89 214.933 1342.89 210.4C1342.89 206.6 1343.32 203.567 1344.19 201.3C1345.12 199.033 1346.35 197.267 1347.89 196C1349.49 194.733 1351.32 193.9 1353.39 193.5C1355.52 193.1 1357.75 192.9 1360.09 192.9C1362.42 192.9 1364.62 193.133 1366.69 193.6C1368.75 194.067 1370.55 194.867 1372.09 196C1373.62 197.133 1374.82 198.633 1375.69 200.5C1376.62 202.3 1377.09 204.6 1377.09 207.4ZM1350.99 210.4C1350.99 213.133 1351.09 215.733 1351.29 218.2C1352.42 218.4 1353.49 218.533 1354.49 218.6C1355.49 218.667 1356.45 218.7 1357.39 218.7C1359.72 218.7 1361.65 218.433 1363.19 217.9C1364.72 217.3 1365.92 216.5 1366.79 215.5C1367.65 214.5 1368.25 213.3 1368.59 211.9C1368.92 210.5 1369.09 209 1369.09 207.4C1369.09 203.6 1368.22 200.933 1366.49 199.4C1364.75 197.8 1362.62 197 1360.09 197C1358.82 197 1357.62 197.167 1356.49 197.5C1355.42 197.767 1354.45 198.4 1353.59 199.4C1352.79 200.333 1352.15 201.7 1351.69 203.5C1351.22 205.233 1350.99 207.533 1350.99 210.4ZM1391.45 171H1399.25L1398.15 246H1392.55L1391.45 171ZM1415.09 171H1422.89L1421.79 246H1416.19L1415.09 171ZM1453.02 243.4C1454.29 243.4 1455.49 242.467 1456.62 240.6C1457.75 238.733 1458.72 236.267 1459.52 233.2C1460.32 230.133 1460.95 226.633 1461.42 222.7C1461.89 218.767 1462.12 214.767 1462.12 210.7C1462.12 207.833 1461.89 205.533 1461.42 203.8C1460.95 202 1460.29 200.633 1459.42 199.7C1458.62 198.7 1457.65 198.067 1456.52 197.8C1455.45 197.467 1454.29 197.3 1453.02 197.3C1451.75 197.3 1450.55 197.467 1449.42 197.8C1448.35 198.067 1447.39 198.7 1446.52 199.7C1445.72 200.633 1445.09 202 1444.62 203.8C1444.15 205.533 1443.92 207.833 1443.92 210.7C1443.92 214.767 1444.15 218.767 1444.62 222.7C1445.09 226.633 1445.72 230.133 1446.52 233.2C1447.32 236.267 1448.25 238.733 1449.32 240.6C1450.45 242.467 1451.69 243.4 1453.02 243.4ZM1453.02 247.5C1450.62 247.5 1448.35 246.433 1446.22 244.3C1444.15 242.167 1442.32 239.367 1440.72 235.9C1439.19 232.433 1437.99 228.5 1437.12 224.1C1436.25 219.7 1435.82 215.233 1435.82 210.7C1435.82 206.9 1436.25 203.867 1437.12 201.6C1438.05 199.333 1439.29 197.567 1440.82 196.3C1442.42 195.033 1444.25 194.2 1446.32 193.8C1448.45 193.4 1450.69 193.2 1453.02 193.2C1455.35 193.2 1457.55 193.4 1459.62 193.8C1461.75 194.2 1463.59 195.033 1465.12 196.3C1466.72 197.567 1467.95 199.333 1468.82 201.6C1469.75 203.867 1470.22 206.9 1470.22 210.7C1470.22 215.233 1469.79 219.7 1468.92 224.1C1468.05 228.5 1466.82 232.433 1465.22 235.9C1463.69 239.367 1461.85 242.167 1459.72 244.3C1457.65 246.433 1455.42 247.5 1453.02 247.5Z" fill="white"/>
<rect width="574" height="221" rx="110.5" fill="#F6D96A"/>
<rect x="1531" y="658" width="499" height="221" rx="110.5" fill="#AEC2C7"/>
<path d="M551.456 264.711L467.783 216.795L536.165 169.51L551.456 264.711Z" fill="#F7DB70"/>
<path d="M1692 775H1668.8V801H1660L1663.3 734H1668.8V770.5H1692V734H1697.5L1700.9 801H1692.1L1692 775ZM1730.23 747.9C1732.63 747.9 1734.87 749 1736.93 751.2C1739.07 753.333 1740.9 756.167 1742.43 759.7C1744.03 763.167 1745.27 767.133 1746.13 771.6C1747 776 1747.43 780.467 1747.43 785C1747.43 788.8 1746.97 791.833 1746.03 794.1C1745.17 796.367 1743.93 798.133 1742.33 799.4C1740.8 800.667 1738.97 801.5 1736.83 801.9C1734.77 802.3 1732.57 802.5 1730.23 802.5C1727.9 802.5 1725.73 802.3 1723.73 801.9C1721.73 801.567 1720 800.867 1718.53 799.8C1717.07 798.733 1715.9 797.267 1715.03 795.4C1714.23 793.467 1713.83 791 1713.83 788C1713.83 785.533 1714.37 783.333 1715.43 781.4C1716.5 779.467 1717.93 777.867 1719.73 776.6C1721.53 775.267 1723.6 774.267 1725.93 773.6C1728.33 772.867 1730.83 772.5 1733.43 772.5C1735.03 772.5 1736.77 772.667 1738.63 773C1738.3 770.133 1737.83 767.433 1737.23 764.9C1736.7 762.367 1736.07 760.167 1735.33 758.3C1734.6 756.367 1733.8 754.867 1732.93 753.8C1732.07 752.667 1731.17 752.1 1730.23 752.1C1728.97 752.1 1727.77 753.333 1726.63 755.8C1725.57 758.267 1725.03 761.5 1725.03 765.5L1716.93 763.4C1717.67 760.333 1718.5 757.8 1719.43 755.8C1720.37 753.8 1721.4 752.233 1722.53 751.1C1723.67 749.9 1724.87 749.067 1726.13 748.6C1727.47 748.133 1728.83 747.9 1730.23 747.9ZM1739.33 785C1739.33 782.467 1739.23 779.933 1739.03 777.4C1738.5 777.333 1738 777.3 1737.53 777.3C1737.07 777.233 1736.6 777.2 1736.13 777.2C1734.2 777.2 1732.37 777.4 1730.63 777.8C1728.97 778.2 1727.47 778.833 1726.13 779.7C1724.87 780.567 1723.83 781.7 1723.03 783.1C1722.3 784.433 1721.93 786.067 1721.93 788C1721.93 790.133 1722.13 791.9 1722.53 793.3C1722.93 794.633 1723.5 795.7 1724.23 796.5C1724.97 797.233 1725.83 797.733 1726.83 798C1727.83 798.267 1728.97 798.4 1730.23 798.4C1731.5 798.4 1732.67 798.267 1733.73 798C1734.87 797.667 1735.83 797.033 1736.63 796.1C1737.5 795.1 1738.17 793.733 1738.63 792C1739.1 790.267 1739.33 787.933 1739.33 785ZM1760.29 726H1768.09L1766.99 801H1761.39L1760.29 726ZM1783.92 726H1791.72L1790.62 801H1785.02L1783.92 726ZM1821.86 798.4C1823.12 798.4 1824.32 797.467 1825.46 795.6C1826.59 793.733 1827.56 791.267 1828.36 788.2C1829.16 785.133 1829.79 781.633 1830.26 777.7C1830.72 773.767 1830.96 769.767 1830.96 765.7C1830.96 762.833 1830.72 760.533 1830.26 758.8C1829.79 757 1829.12 755.633 1828.26 754.7C1827.46 753.7 1826.49 753.067 1825.36 752.8C1824.29 752.467 1823.12 752.3 1821.86 752.3C1820.59 752.3 1819.39 752.467 1818.26 752.8C1817.19 753.067 1816.22 753.7 1815.36 754.7C1814.56 755.633 1813.92 757 1813.46 758.8C1812.99 760.533 1812.76 762.833 1812.76 765.7C1812.76 769.767 1812.99 773.767 1813.46 777.7C1813.92 781.633 1814.56 785.133 1815.36 788.2C1816.16 791.267 1817.09 793.733 1818.16 795.6C1819.29 797.467 1820.52 798.4 1821.86 798.4ZM1821.86 802.5C1819.46 802.5 1817.19 801.433 1815.06 799.3C1812.99 797.167 1811.16 794.367 1809.56 790.9C1808.02 787.433 1806.82 783.5 1805.96 779.1C1805.09 774.7 1804.66 770.233 1804.66 765.7C1804.66 761.9 1805.09 758.867 1805.96 756.6C1806.89 754.333 1808.12 752.567 1809.66 751.3C1811.26 750.033 1813.09 749.2 1815.16 748.8C1817.29 748.4 1819.52 748.2 1821.86 748.2C1824.19 748.2 1826.39 748.4 1828.46 748.8C1830.59 749.2 1832.42 750.033 1833.96 751.3C1835.56 752.567 1836.79 754.333 1837.66 756.6C1838.59 758.867 1839.06 761.9 1839.06 765.7C1839.06 770.233 1838.62 774.7 1837.76 779.1C1836.89 783.5 1835.66 787.433 1834.06 790.9C1832.52 794.367 1830.69 797.167 1828.56 799.3C1826.49 801.433 1824.26 802.5 1821.86 802.5ZM1857.29 782.4C1856.82 782.4 1856.39 781.633 1855.99 780.1C1855.59 778.5 1855.22 776.433 1854.89 773.9C1854.56 771.367 1854.22 768.533 1853.89 765.4C1853.62 762.267 1853.39 759.167 1853.19 756.1C1852.99 753.033 1852.82 750.133 1852.69 747.4C1852.62 744.667 1852.59 742.433 1852.59 740.7C1852.59 738.767 1852.66 737.233 1852.79 736.1C1852.99 734.967 1853.26 734.1 1853.59 733.5C1853.99 732.9 1854.49 732.5 1855.09 732.3C1855.69 732.1 1856.42 732 1857.29 732C1858.16 732 1858.89 732.1 1859.49 732.3C1860.16 732.5 1860.66 732.9 1860.99 733.5C1861.32 734.1 1861.56 734.967 1861.69 736.1C1861.89 737.233 1861.99 738.767 1861.99 740.7C1861.99 742.433 1861.92 744.667 1861.79 747.4C1861.72 750.133 1861.59 753.033 1861.39 756.1C1861.19 759.167 1860.92 762.267 1860.59 765.4C1860.32 768.533 1860.02 771.367 1859.69 773.9C1859.36 776.433 1858.99 778.5 1858.59 780.1C1858.19 781.633 1857.76 782.4 1857.29 782.4ZM1857.29 789C1858.02 789 1858.69 789.3 1859.29 789.9C1859.89 790.433 1860.42 791.167 1860.89 792.1C1861.36 792.967 1861.69 793.967 1861.89 795.1C1862.16 796.233 1862.29 797.4 1862.29 798.6C1862.29 800.333 1861.79 801.4 1860.79 801.8C1859.86 802.267 1858.69 802.5 1857.29 802.5C1855.89 802.5 1854.72 802.267 1853.79 801.8C1852.86 801.4 1852.39 800.333 1852.39 798.6C1852.39 797.4 1852.49 796.233 1852.69 795.1C1852.96 793.967 1853.32 792.967 1853.79 792.1C1854.26 791.167 1854.76 790.433 1855.29 789.9C1855.89 789.3 1856.56 789 1857.29 789Z" fill="white"/>
<path d="M1489.04 612.821L1615.2 675.217L1557.97 735.529L1489.04 612.821Z" fill="#AEC2C7"/>
<path d="M214.2 145V108.5C214.2 104.167 213.2 101.1 211.2 99.3C209.267 97.4333 206 96.5 201.4 96.5C198.067 96.5 194.867 96.9667 191.8 97.9C188.8 98.7667 185.933 100 183.2 101.6V93.3C185.133 92.3 187.733 91.3667 191 90.5C194.333 89.6333 198.067 89.2 202.2 89.2C205.733 89.2 208.733 89.6 211.2 90.4C213.733 91.2 215.6 92.6667 216.8 94.8C219.133 95.8667 220.733 97.5333 221.6 99.8C222.533 102.067 223 104.8 223 108V145H214.2ZM197 146C191.133 146 186.633 144.667 183.5 142C180.433 139.267 178.9 135.367 178.9 130.3C178.9 124.767 180.9 120.5 184.9 117.5C188.967 114.5 195.533 112.733 204.6 112.2L216 111.5V118.9L205.8 119.6C199 120.067 194.3 121.133 191.7 122.8C189.167 124.467 187.9 126.9 187.9 130.1C187.9 133.1 188.833 135.3 190.7 136.7C192.633 138.1 195.3 138.8 198.7 138.8C199.833 138.8 200.867 138.733 201.8 138.6C202.733 138.4 203.633 138.167 204.5 137.9L205.9 144.6C204.633 145.067 203.233 145.4 201.7 145.6C200.233 145.867 198.667 146 197 146ZM216.5 97.9L211.5 93.2C213.233 92.9333 214.867 92.2667 216.4 91.2C217.933 90.1333 218.7 88.6 218.7 86.6H227.4C227.4 88.6667 226.9 90.5 225.9 92.1C224.967 93.6333 223.667 94.9 222 95.9C220.333 96.8333 218.5 97.5 216.5 97.9ZM250.327 146C247.727 146 245.193 145.733 242.727 145.2C240.327 144.667 237.76 143.667 235.027 142.2L237.827 135.4C239.293 136.267 240.96 137.033 242.827 137.7C244.693 138.3 246.86 138.6 249.327 138.6C254.26 138.6 258.093 136.8 260.827 133.2C263.627 129.533 265.027 124.267 265.027 117.4C265.027 110.667 263.593 105.533 260.727 102C257.927 98.4 253.593 96.6 247.727 96.6C245.593 96.6 243.427 96.8333 241.227 97.3C239.027 97.7667 237.093 98.4667 235.427 99.4V91.9C237.36 90.9 239.46 90.2 241.727 89.8C244.06 89.4 246.393 89.2 248.727 89.2C254.727 89.2 259.593 90.4 263.327 92.8C267.06 95.1333 269.793 98.4 271.527 102.6C273.26 106.8 274.127 111.733 274.127 117.4C274.127 126.2 272.127 133.167 268.127 138.3C264.193 143.433 258.26 146 250.327 146ZM259.822 81.5C257.022 81.5 254.789 81.1 253.122 80.3C251.455 79.5 250.255 78.4667 249.522 77.2C248.722 75.9333 248.322 74.6 248.322 73.2C248.322 72.2 248.489 71.1333 248.822 70C249.089 68.8 249.455 67.8333 249.922 67.1L257.422 68.4C257.289 68.6667 257.155 69.1333 257.022 69.8C256.889 70.4 256.822 70.9667 256.822 71.5C256.822 72.3667 257.089 73.1333 257.622 73.8C258.155 74.4 259.055 74.7 260.322 74.7H285.622V81.5H259.822ZM320.645 145V108.5C320.645 104.167 319.645 101.1 317.645 99.3C315.712 97.4333 312.445 96.5 307.845 96.5C304.512 96.5 301.312 96.9667 298.245 97.9C295.245 98.7667 292.379 100 289.645 101.6V93.3C291.579 92.3 294.179 91.3667 297.445 90.5C300.779 89.6333 304.512 89.2 308.645 89.2C312.179 89.2 315.179 89.6 317.645 90.4C320.179 91.2 322.045 92.6667 323.245 94.8C325.579 95.8667 327.179 97.5333 328.045 99.8C328.979 102.067 329.445 104.8 329.445 108V145H320.645ZM303.445 146C297.579 146 293.079 144.667 289.945 142C286.879 139.267 285.345 135.367 285.345 130.3C285.345 124.767 287.345 120.5 291.345 117.5C295.412 114.5 301.979 112.733 311.045 112.2L322.445 111.5V118.9L312.245 119.6C305.445 120.067 300.745 121.133 298.145 122.8C295.612 124.467 294.345 126.9 294.345 130.1C294.345 133.1 295.279 135.3 297.145 136.7C299.079 138.1 301.745 138.8 305.145 138.8C306.279 138.8 307.312 138.733 308.245 138.6C309.179 138.4 310.079 138.167 310.945 137.9L312.345 144.6C311.079 145.067 309.679 145.4 308.145 145.6C306.679 145.867 305.112 146 303.445 146ZM322.945 97.9L317.945 93.2C319.679 92.9333 321.312 92.2667 322.845 91.2C324.379 90.1333 325.145 88.6 325.145 86.6H333.845C333.845 88.6667 333.345 90.5 332.345 92.1C331.412 93.6333 330.112 94.9 328.445 95.9C326.779 96.8333 324.945 97.5 322.945 97.9ZM364.472 146C359.139 146 354.939 144.767 351.872 142.3C348.872 139.767 346.739 136.367 345.472 132.1C344.272 127.833 343.672 123.133 343.672 118C343.672 112.333 344.239 107.667 345.372 104C346.572 100.267 348.239 97.3333 350.372 95.2C352.572 93 355.172 91.4667 358.172 90.6C361.239 89.6667 364.605 89.2 368.272 89.2C373.605 89.2 377.939 90 381.272 91.6C384.672 93.1333 387.172 95.3333 388.772 98.2C390.372 101.067 391.172 104.5 391.172 108.5V145H382.372V109.3C382.372 105.167 381.339 102.033 379.272 99.9C377.205 97.7 373.639 96.6 368.572 96.6C365.505 96.6 362.739 97.1667 360.272 98.3C357.872 99.4333 355.972 101.533 354.572 104.6C353.239 107.667 352.572 112.167 352.572 118.1C352.572 121.967 352.939 125.467 353.672 128.6C354.472 131.667 355.839 134.1 357.772 135.9C359.705 137.7 362.405 138.6 365.872 138.6C366.872 138.6 367.805 138.533 368.672 138.4C369.539 138.267 370.372 138.067 371.172 137.8L372.072 144.7C371.005 145.167 369.772 145.5 368.372 145.7C367.039 145.9 365.739 146 364.472 146ZM347.893 81.5V77.6L355.193 74.4H390.393V81.5H347.893ZM382.093 77.6V66.3H390.493V77.6H382.093Z" fill="white"/>
<defs>
<filter id="filter0_d_16_70" x="1182" y="135" width="390" height="165" filterUnits="userSpaceOnUse" color-interpolation-filters="sRGB">
<feFlood flood-opacity="0" result="BackgroundImageFix"/>
<feColorMatrix in="SourceAlpha" type="matrix" values="0 0 0 0 0 0 0 0 0 0 0 0 0 0 0 0 0 0 127 0" result="hardAlpha"/>
<feOffset dy="4"/>
<feGaussianBlur stdDeviation="2"/>
<feComposite in2="hardAlpha" operator="out"/>
<feColorMatrix type="matrix" values="0 0 0 0 0 0 0 0 0 0 0 0 0 0 0 0 0 0 0.25 0"/>
<feBlend mode="normal" in2="BackgroundImageFix" result="effect1_dropShadow_16_70"/>
<feBlend mode="normal" in="SourceGraphic" in2="effect1_dropShadow_16_70" result="shape"/>
</filter>
</defs>
</svg>
