<?xml version="1.0" standalone="no"?>
<!DOCTYPE svg PUBLIC "-//W3C//DTD SVG 20010904//EN"
 "http://www.w3.org/TR/2001/REC-SVG-20010904/DTD/svg10.dtd">
<svg version="1.0" xmlns="http://www.w3.org/2000/svg"
 width="635.000000pt" height="393.000000pt" viewBox="0 0 635.000000 393.000000"
 preserveAspectRatio="xMidYMid meet">

<g transform="translate(0.000000,393.000000) scale(0.100000,-0.100000)"
fill="#000000" stroke="none">
<path d="M3520 2968 l0 -198 485 0 485 0 0 195 0 195 -27 0 c-16 0 -234 1
-485 3 l-458 2 0 -197z m300 72 c0 -23 4 -27 19 -23 25 6 40 -22 48 -87 5 -42
3 -50 -11 -50 -12 0 -16 10 -16 48 0 47 -13 82 -23 65 -3 -5 -9 -33 -13 -61
-4 -34 -11 -52 -20 -52 -11 0 -14 21 -14 93 0 52 3 97 6 100 12 12 24 -4 24
-33z m240 -60 c0 -60 -4 -100 -10 -100 -6 0 -10 40 -10 100 0 60 4 100 10 100
6 0 10 -40 10 -100z m61 87 c-1 -4 -1 -47 -1 -97 0 -49 -4 -90 -9 -90 -9 0
-20 188 -12 196 7 6 23 0 22 -9z m-123 -85 c3 -29 0 -33 -26 -38 -23 -5 -29
-10 -24 -26 3 -14 8 -16 15 -9 15 15 27 14 27 -4 0 -8 -8 -19 -19 -24 -26 -14
-51 16 -58 68 -7 51 9 73 51 69 27 -3 31 -7 34 -36z m240 -6 c5 -62 -26 -117
-55 -98 -31 21 -45 106 -21 130 7 7 26 12 43 10 27 -3 30 -7 33 -42z"/>
<path d="M3940 2980 c0 -15 5 -20 18 -18 9 2 17 10 17 18 0 8 -8 16 -17 18
-13 2 -18 -3 -18 -18z"/>
<path d="M4180 2956 c0 -25 5 -48 11 -51 15 -10 18 -4 21 45 2 36 0 45 -14 48
-15 3 -18 -4 -18 -42z"/>
</g>
</svg>
